<svg id="background_0CDBE8" xmlns="http://www.w3.org/2000/svg" xmlns:xlink="http://www.w3.org/1999/xlink" viewBox="0 0 800 450">
    <defs>
        <style>
            .cls-0CDBE8 {
                fill: #0CDBE8;
                fill-rule: evenodd;
            }
        </style>
        <symbol id="Konko" data-name="Konko" viewBox="0 0 13.44 15.36">
            <path class="cls-0CDBE8" d="M3.84,0H9.6V1H3.84Z" />
            <path class="cls-0CDBE8" d="M2.88,1h1v1h-1Z" />
            <path class="cls-0CDBE8" d="M9.6,1h1v1h-1Z" />
            <path class="cls-0CDBE8" d="M1.92,1.92h1v1h-1Z" />
            <path class="cls-0CDBE8" d="M10.56,1.92h1v1h-1Z" />
            <path class="cls-0CDBE8" d="M1,2.88h1V4.8H1Z" />
            <path class="cls-0CDBE8" d="M3.84,2.88h1v1h-1Z" />
            <path class="cls-0CDBE8" d="M8.64,2.88h1v1h-1Z" />
            <path class="cls-0CDBE8" d="M11.52,2.88h1V4.8h-1Z" />
            <path class="cls-0CDBE8" d="M2.88,3.84h1V6.72h-1Z" />
            <path class="cls-0CDBE8" d="M7.68,3.84h1v1h-1Z" />
            <path class="cls-0CDBE8" d="M9.6,3.84h1v1h-1Z" />
            <path class="cls-0CDBE8" d="M0,4.8H1V7.68h1v1H1v1h1v-1h1v1h1v-1h1v-1h1V9.6h-1v1.92h-1v-1h-1v1h-1v-1H1v1H0Z" />
            <path class="cls-0CDBE8" d="M6.72,4.8h1v1h-1Z" />
            <path class="cls-0CDBE8" d="M8.64,4.8h1V7.68h-1Z" />
            <path class="cls-0CDBE8" d="M10.56,4.8h1V6.72h1V4.8h1v6.72h-1v-1h-1v1h-1v-1h-1v1h-1V9.6h-1v-1H9.6v1h1v-1h1v1h1v-1h-1v-1h-1Z" />
            <path class="cls-0CDBE8" d="M5.76,5.76h1V7.68h-1Z" />
            <path class="cls-0CDBE8" d="M1.92,6.72h1v1h-1Z" />
            <path class="cls-0CDBE8" d="M3.84,6.72h1v1h-1Z" />
            <path class="cls-0CDBE8" d="M2.88,7.68h1v1h-1Z" />
            <path class="cls-0CDBE8" d="M9.6,7.68h1v1h-1Z" />
            <path class="cls-0CDBE8" d="M5.76,9.6H7.68v1.92H5.76Z" />
            <path class="cls-0CDBE8" d="M1,11.52h1v1h1v-1h1v1.92H9.6V11.52h1v1h1v-1h1v1.92h-1v1H9.6v1H7.68v-1H5.76v1H3.84v-1H1.92v-1H1Z" />
        </symbol>
    </defs>
    <title>0CDBE8</title>
    <use width="13.44" height="15.36" transform="translate(712.94 133.86) scale(1.6)" xlink:href="#Konko" />
    <use width="13.44" height="15.36" transform="translate(771.92 298.11) scale(1.41)" xlink:href="#Konko" />
    <use width="13.44" height="15.36" transform="translate(624.97 385.13) scale(1.52)" xlink:href="#Konko" />
    <use width="13.44" height="15.36" transform="translate(387.56 268.51) scale(2.11)" xlink:href="#Konko" />
    <use width="13.44" height="15.36" transform="translate(313.66 356.61) scale(2.08)" xlink:href="#Konko" />
    <use width="13.44" height="15.36" transform="translate(770.77 439.27) scale(1.24)" xlink:href="#Konko" />
    <use width="13.44" height="15.36" transform="translate(509.02 307.32) scale(1.83)" xlink:href="#Konko" />
    <use width="13.44" height="15.36" transform="translate(334 102.48) scale(1.94)" xlink:href="#Konko" />
    <use width="13.44" height="15.36" transform="translate(417.74 388.1) scale(1.81)" xlink:href="#Konko" />
    <use width="13.44" height="15.36" transform="translate(239.43 87.35) scale(1.81)" xlink:href="#Konko" />
    <use width="13.44" height="15.36" transform="translate(705.4 407.32) scale(1.3)" xlink:href="#Konko" />
    <use width="13.44" height="15.36" transform="translate(71.66 119.35) scale(1.35)" xlink:href="#Konko" />
    <use width="13.44" height="15.36" transform="translate(525.11 385.98) scale(1.71)" xlink:href="#Konko" />
    <use width="13.44" height="15.36" transform="translate(769.75 209.24) scale(1.5)" xlink:href="#Konko" />
    <use width="13.44" height="15.36" transform="translate(633.56 37.52) scale(1.69)" xlink:href="#Konko" />
    <use width="13.44" height="15.36" transform="translate(685.04 313.52) scale(1.58)" xlink:href="#Konko" />
    <use width="13.44" height="15.36" transform="translate(8.52 417.19) scale(1.34)" xlink:href="#Konko" />
    <use width="13.44" height="15.36" transform="translate(219 354.73) scale(1.97)" xlink:href="#Konko" />
    <use width="13.44" height="15.36" transform="translate(766.29 83.18) scale(1.46)" xlink:href="#Konko" />
    <use width="13.44" height="15.36" transform="translate(556.72 200.91) scale(1.8)" xlink:href="#Konko" />
    <use width="13.44" height="15.36" transform="translate(405.29 -24.45) scale(1.63)" xlink:href="#Konko" />
    <use width="13.44" height="15.36" transform="translate(33.62 31.75) scale(1.18)" xlink:href="#Konko" />
    <use width="13.44" height="15.36" transform="translate(616.56 122.6) scale(1.79)" xlink:href="#Konko" />
    <use width="13.44" height="15.36" transform="translate(324.67 21.16) scale(1.77)" xlink:href="#Konko" />
    <use width="13.44" height="15.36" transform="translate(222.37 5.78) scale(1.58)" xlink:href="#Konko" />
    <use width="13.44" height="15.36" transform="translate(534.11 28.52) scale(1.72)" xlink:href="#Konko" />
    <use width="13.44" height="15.36" transform="translate(124.46 -7.43) scale(1.3)" xlink:href="#Konko" />
    <use width="13.44" height="15.36" transform="translate(424.23 176.46) scale(2.02)" xlink:href="#Konko" />
    <use width="13.44" height="15.36" transform="translate(53.96 341.46) scale(1.45)" xlink:href="#Konko" />
    <use width="13.44" height="15.36" transform="translate(709.81 18.98) scale(1.54)" xlink:href="#Konko" />
    <use width="13.44" height="15.36" transform="translate(137.97 289.58) scale(1.69)" xlink:href="#Konko" />
    <use width="13.44" height="15.36" transform="translate(489.19 103.11) scale(1.87)" xlink:href="#Konko" />
    <use width="13.44" height="15.36" transform="translate(267.22 189.21) scale(2.13)" xlink:href="#Konko" />
    <use width="13.44" height="15.36" transform="translate(417.16 47.89) scale(1.81)" xlink:href="#Konko" />
    <use width="13.44" height="15.36" transform="translate(140.54 70.51) scale(1.51)" xlink:href="#Konko" />
    <use width="13.44" height="15.36" transform="translate(78.57 207.47) scale(1.54)" xlink:href="#Konko" />
    <use width="13.44" height="15.36" transform="translate(7.28 160.37) scale(1.57)" xlink:href="#Konko" />
    <use width="13.44" height="15.36" transform="translate(197.52 137.72) scale(1.56)" xlink:href="#Konko" />
    <use width="13.44" height="15.36" transform="translate(154.37 177.42) scale(1.54)" xlink:href="#Konko" />
    <use width="13.44" height="15.36" transform="translate(220.31 281.09) scale(1.56)" xlink:href="#Konko" />
    <use width="13.44" height="15.36" transform="translate(656.9 226.63) scale(1.78)" xlink:href="#Konko" />
    <use width="13.44" height="15.36" transform="translate(602.46 278.47) scale(1.71)" xlink:href="#Konko" />
</svg>
