<svg id="background_55E302" xmlns="http://www.w3.org/2000/svg" xmlns:xlink="http://www.w3.org/1999/xlink" viewBox="0 0 800 450">
    <defs>
        <style>
            .cls-55E302 {
                fill: #55E302;
                fill-rule: evenodd;
            }
        </style>
        <symbol id="Konko" data-name="Konko" viewBox="0 0 13.44 15.36">
            <path class="cls-55E302" d="M3.84,0H9.6V1H3.84Z" />
            <path class="cls-55E302" d="M2.88,1h1v1h-1Z" />
            <path class="cls-55E302" d="M9.6,1h1v1h-1Z" />
            <path class="cls-55E302" d="M1.92,1.92h1v1h-1Z" />
            <path class="cls-55E302" d="M10.56,1.92h1v1h-1Z" />
            <path class="cls-55E302" d="M1,2.88h1V4.8H1Z" />
            <path class="cls-55E302" d="M3.84,2.88h1v1h-1Z" />
            <path class="cls-55E302" d="M8.64,2.88h1v1h-1Z" />
            <path class="cls-55E302" d="M11.52,2.88h1V4.8h-1Z" />
            <path class="cls-55E302" d="M2.88,3.84h1V6.72h-1Z" />
            <path class="cls-55E302" d="M7.68,3.84h1v1h-1Z" />
            <path class="cls-55E302" d="M9.6,3.84h1v1h-1Z" />
            <path class="cls-55E302" d="M0,4.8H1V7.68h1v1H1v1h1v-1h1v1h1v-1h1v-1h1V9.6h-1v1.92h-1v-1h-1v1h-1v-1H1v1H0Z" />
            <path class="cls-55E302" d="M6.72,4.8h1v1h-1Z" />
            <path class="cls-55E302" d="M8.64,4.8h1V7.68h-1Z" />
            <path class="cls-55E302" d="M10.56,4.8h1V6.72h1V4.8h1v6.72h-1v-1h-1v1h-1v-1h-1v1h-1V9.6h-1v-1H9.6v1h1v-1h1v1h1v-1h-1v-1h-1Z" />
            <path class="cls-55E302" d="M5.76,5.76h1V7.68h-1Z" />
            <path class="cls-55E302" d="M1.92,6.72h1v1h-1Z" />
            <path class="cls-55E302" d="M3.84,6.72h1v1h-1Z" />
            <path class="cls-55E302" d="M2.88,7.68h1v1h-1Z" />
            <path class="cls-55E302" d="M9.6,7.68h1v1h-1Z" />
            <path class="cls-55E302" d="M5.76,9.6H7.68v1.92H5.76Z" />
            <path class="cls-55E302" d="M1,11.52h1v1h1v-1h1v1.92H9.6V11.52h1v1h1v-1h1v1.92h-1v1H9.6v1H7.68v-1H5.76v1H3.84v-1H1.92v-1H1Z" />
        </symbol>
    </defs>
    <title>55E302</title>
    <use width="13.44" height="15.36" transform="translate(652.68 306.94) scale(1.6)" xlink:href="#Konko" />
    <use width="13.44" height="15.36" transform="translate(774.17 386.56) scale(1.3)" xlink:href="#Konko" />
    <use width="13.44" height="15.36" transform="translate(598.03 428.17) scale(1.41)" xlink:href="#Konko" />
    <use width="13.44" height="15.36" transform="translate(87.51 268.59) scale(2.11)" xlink:href="#Konko" />
    <use width="13.44" height="15.36" transform="translate(122.99 150.39) scale(2.08)" xlink:href="#Konko" />
    <use width="13.44" height="15.36" transform="translate(714.76 405.05) scale(1.24)" xlink:href="#Konko" />
    <use width="13.44" height="15.36" transform="translate(261.5 341.76) scale(1.83)" xlink:href="#Konko" />
    <use width="13.44" height="15.36" transform="translate(222.4 68.41) scale(1.94)" xlink:href="#Konko" />
    <use width="13.44" height="15.36" transform="translate(134.56 25.77) scale(1.81)" xlink:href="#Konko" />
    <use width="13.44" height="15.36" transform="translate(222.18 399.29) scale(1.59)" xlink:href="#Konko" />
    <use width="13.44" height="15.36" transform="translate(157.54 317.17) scale(1.78)" xlink:href="#Konko" />
    <use width="13.44" height="15.36" transform="translate(748.03 326.44) scale(1.4)" xlink:href="#Konko" />
    <use width="13.44" height="15.36" transform="translate(27.26 18.31) scale(1.21)" xlink:href="#Konko" />
    <use width="13.44" height="15.36" transform="translate(390.99 79.52) scale(1.35)" xlink:href="#Konko" />
    <use width="13.44" height="15.36" transform="translate(355.63 -18.62) scale(1.23)" xlink:href="#Konko" />
    <use width="13.44" height="15.36" transform="translate(305.33 407.27) scale(1.71)" xlink:href="#Konko" />
    <use width="13.44" height="15.36" transform="translate(648.16 371.51) scale(1.5)" xlink:href="#Konko" />
    <use width="13.44" height="15.36" transform="translate(703.36 239.78) scale(1.69)" xlink:href="#Konko" />
    <use width="13.44" height="15.36" transform="translate(484.51 419.9) scale(1.58)" xlink:href="#Konko" />
    <use width="13.44" height="15.36" transform="translate(39.11 412.07) scale(1.5)" xlink:href="#Konko" />
    <use width="13.44" height="15.36" transform="translate(60.02 205.27) scale(1.34)" xlink:href="#Konko" />
    <use width="13.44" height="15.36" transform="translate(740.4 99.37) scale(1.61)" xlink:href="#Konko" />
    <use width="13.44" height="15.36" transform="translate(778.41 24.92) scale(1.38)" xlink:href="#Konko" />
    <use width="13.44" height="15.36" transform="translate(440.4 -5.35) scale(1.11)" xlink:href="#Konko" />
    <use width="13.44" height="15.36" transform="translate(126.5 410.84) scale(1.8)" xlink:href="#Konko" />
    <use width="13.44" height="15.36" transform="translate(165.55 228.92) scale(1.56)" xlink:href="#Konko" />
    <use width="13.44" height="15.36" transform="translate(299.93 275.21) scale(1.8)" xlink:href="#Konko" />
    <use width="13.44" height="15.36" transform="translate(627.99 146.02) scale(1.63)" xlink:href="#Konko" />
    <use width="13.44" height="15.36" transform="translate(517.52 307.81) scale(1.79)" xlink:href="#Konko" />
    <use width="13.44" height="15.36" transform="translate(79.39 344.98) scale(1.57)" xlink:href="#Konko" />
    <use width="13.44" height="15.36" transform="translate(513.68 175.63) scale(1.77)" xlink:href="#Konko" />
    <use width="13.44" height="15.36" transform="translate(567.54 90.4) scale(1.58)" xlink:href="#Konko" />
    <use width="13.44" height="15.36" transform="translate(769.64 161.84) scale(1.63)" xlink:href="#Konko" />
    <use width="13.44" height="15.36" transform="translate(596.62 225.45) scale(1.72)" xlink:href="#Konko" />
    <use width="13.44" height="15.36" transform="translate(710.7 161.36) scale(1.6)" xlink:href="#Konko" />
    <use width="13.44" height="15.36" transform="translate(614.03 25.11) scale(1.3)" xlink:href="#Konko" />
    <use width="13.44" height="15.36" transform="translate(11.07 257.81) scale(1.33)" xlink:href="#Konko" />
    <use width="13.44" height="15.36" transform="translate(216.07 174.17) scale(2.02)" xlink:href="#Konko" />
    <use width="13.44" height="15.36" transform="translate(-22.48 83.04) scale(1.69)" xlink:href="#Konko" />
    <use width="13.44" height="15.36" transform="translate(336.42 178.38) scale(1.87)" xlink:href="#Konko" />
    <use width="13.44" height="15.36" transform="translate(65.65 66.86) scale(2.13)" xlink:href="#Konko" />
    <use width="13.44" height="15.36" transform="translate(439.47 172.42) scale(1.81)" xlink:href="#Konko" />
    <use width="13.44" height="15.36" transform="translate(698.08 52.5) scale(1.52)" xlink:href="#Konko" />
    <use width="13.44" height="15.36" transform="translate(304.17 70.33) scale(1.54)" xlink:href="#Konko" />
    <use width="13.44" height="15.36" transform="translate(479.76 92.31) scale(1.57)" xlink:href="#Konko" />
    <use width="13.44" height="15.36" transform="translate(246.62 1.89) scale(1.56)" xlink:href="#Konko" />
    <use width="13.44" height="15.36" transform="translate(24.94 150.11) scale(1.56)" xlink:href="#Konko" />
    <use width="13.44" height="15.36" transform="translate(424.28 362.85) scale(1.78)" xlink:href="#Konko" />
    <use width="13.44" height="15.36" transform="translate(383.32 302.17) scale(1.71)" xlink:href="#Konko" />
</svg>
