<svg id="background_E8A408" xmlns="http://www.w3.org/2000/svg" xmlns:xlink="http://www.w3.org/1999/xlink" viewBox="0 0 800 450">
    <defs>
        <style>
            .cls-E8A408 {
                fill: #E8A408;
                fill-rule: evenodd;
            }
        </style>
        <symbol id="Konko" data-name="Konko" viewBox="0 0 13.44 15.36">
            <path class="cls-E8A408" d="M3.84,0H9.6V1H3.84Z" />
            <path class="cls-E8A408" d="M2.88,1h1v1h-1Z" />
            <path class="cls-E8A408" d="M9.6,1h1v1h-1Z" />
            <path class="cls-E8A408" d="M1.92,1.92h1v1h-1Z" />
            <path class="cls-E8A408" d="M10.56,1.92h1v1h-1Z" />
            <path class="cls-E8A408" d="M1,2.88h1V4.8H1Z" />
            <path class="cls-E8A408" d="M3.84,2.88h1v1h-1Z" />
            <path class="cls-E8A408" d="M8.64,2.88h1v1h-1Z" />
            <path class="cls-E8A408" d="M11.52,2.88h1V4.8h-1Z" />
            <path class="cls-E8A408" d="M2.88,3.84h1V6.72h-1Z" />
            <path class="cls-E8A408" d="M7.68,3.84h1v1h-1Z" />
            <path class="cls-E8A408" d="M9.6,3.84h1v1h-1Z" />
            <path class="cls-E8A408" d="M0,4.8H1V7.68h1v1H1v1h1v-1h1v1h1v-1h1v-1h1V9.6h-1v1.92h-1v-1h-1v1h-1v-1H1v1H0Z" />
            <path class="cls-E8A408" d="M6.72,4.8h1v1h-1Z" />
            <path class="cls-E8A408" d="M8.64,4.8h1V7.68h-1Z" />
            <path class="cls-E8A408" d="M10.56,4.8h1V6.72h1V4.8h1v6.72h-1v-1h-1v1h-1v-1h-1v1h-1V9.6h-1v-1H9.6v1h1v-1h1v1h1v-1h-1v-1h-1Z" />
            <path class="cls-E8A408" d="M5.76,5.76h1V7.68h-1Z" />
            <path class="cls-E8A408" d="M1.92,6.72h1v1h-1Z" />
            <path class="cls-E8A408" d="M3.84,6.72h1v1h-1Z" />
            <path class="cls-E8A408" d="M2.88,7.68h1v1h-1Z" />
            <path class="cls-E8A408" d="M9.6,7.68h1v1h-1Z" />
            <path class="cls-E8A408" d="M5.76,9.6H7.68v1.92H5.76Z" />
            <path class="cls-E8A408" d="M1,11.52h1v1h1v-1h1v1.92H9.6V11.52h1v1h1v-1h1v1.92h-1v1H9.6v1H7.68v-1H5.76v1H3.84v-1H1.92v-1H1Z" />
        </symbol>
    </defs>
    <title>E8A408</title>
    <use width="13.44" height="15.36" transform="translate(431.43 389.83) scale(1.3)" xlink:href="#Konko" />
    <use width="13.44" height="15.36" transform="translate(556.66 401.53) scale(1.52)" xlink:href="#Konko" />
    <use width="13.44" height="15.36" transform="translate(677.89 119.72) scale(2.11)" xlink:href="#Konko" />
    <use width="13.44" height="15.36" transform="translate(394.76 313.47) scale(1.22)" xlink:href="#Konko" />
    <use width="13.44" height="15.36" transform="translate(755.23 225.15) scale(2.08)" xlink:href="#Konko" />
    <use width="13.44" height="15.36" transform="translate(534.53 88.7) scale(1.24)" xlink:href="#Konko" />
    <use width="13.44" height="15.36" transform="translate(596.55 449.98) scale(1.83)" xlink:href="#Konko" />
    <use width="13.44" height="15.36" transform="translate(242.39 105.76) scale(1.94)" xlink:href="#Konko" />
    <use width="13.44" height="15.36" transform="translate(537.06 189.1) scale(1.81)" xlink:href="#Konko" />
    <use width="13.44" height="15.36" transform="translate(232.19 376.46) scale(1.51)" xlink:href="#Konko" />
    <use width="13.44" height="15.36" transform="translate(5.6 241.09) scale(1.81)" xlink:href="#Konko" />
    <use width="13.44" height="15.36" transform="translate(190.36 177) scale(1.59)" xlink:href="#Konko" />
    <use width="13.44" height="15.36" transform="translate(348.69 425.71) scale(1.54)" xlink:href="#Konko" />
    <use width="13.44" height="15.36" transform="translate(592.21 290.95) scale(1.78)" xlink:href="#Konko" />
    <use width="13.44" height="15.36" transform="translate(472.32 155.27) scale(1.4)" xlink:href="#Konko" />
    <use width="13.44" height="15.36" transform="translate(35.56 384.31) scale(1.21)" xlink:href="#Konko" />
    <use width="13.44" height="15.36" transform="translate(387.56 28.46) scale(1.35)" xlink:href="#Konko" />
    <use width="13.44" height="15.36" transform="translate(87.21 106.39) scale(1.23)" xlink:href="#Konko" />
    <use width="13.44" height="15.36" transform="translate(755.5 389.38) scale(1.71)" xlink:href="#Konko" />
    <use width="13.44" height="15.36" transform="translate(763.71 151.7) scale(1.5)" xlink:href="#Konko" />
    <use width="13.44" height="15.36" transform="translate(277.84 176.14) scale(1.69)" xlink:href="#Konko" />
    <use width="13.44" height="15.36" transform="translate(676.9 421.06) scale(1.58)" xlink:href="#Konko" />
    <use width="13.44" height="15.36" transform="translate(608.58 127.36) scale(1.5)" xlink:href="#Konko" />
    <use width="13.44" height="15.36" transform="translate(535.99 20.58) scale(1.61)" xlink:href="#Konko" />
    <use width="13.44" height="15.36" transform="translate(11.48 75.85) scale(1.11)" xlink:href="#Konko" />
    <use width="13.44" height="15.36" transform="translate(322.98 247.36) scale(1.8)" xlink:href="#Konko" />
    <use width="13.44" height="15.36" transform="translate(630.99 213.95) scale(1.56)" xlink:href="#Konko" />
    <use width="13.44" height="15.36" transform="translate(130.68 446.08) scale(1.97)" xlink:href="#Konko" />
    <use width="13.44" height="15.36" transform="translate(512.3 249.32) scale(1.46)" xlink:href="#Konko" />
    <use width="13.44" height="15.36" transform="translate(759.41 73.32) scale(1.8)" xlink:href="#Konko" />
    <use width="13.44" height="15.36" transform="translate(464.4 2.84) scale(1.63)" xlink:href="#Konko" />
    <use width="13.44" height="15.36" transform="translate(62.26 18.51) scale(1.18)" xlink:href="#Konko" />
    <use width="13.44" height="15.36" transform="translate(724.57 306.57) scale(1.79)" xlink:href="#Konko" />
    <use width="13.44" height="15.36" transform="translate(229.18 243.46) scale(1.57)" xlink:href="#Konko" />
    <use width="13.44" height="15.36" transform="translate(316.2 64.98) scale(1.77)" xlink:href="#Konko" />
    <use width="13.44" height="15.36" transform="translate(447.36 90.59) scale(1.54)" xlink:href="#Konko" />
    <use width="13.44" height="15.36" transform="translate(417.69 238.09) scale(1.72)" xlink:href="#Konko" />
    <use width="13.44" height="15.36" transform="translate(657.9 40.15) scale(1.33)" xlink:href="#Konko" />
    <use width="13.44" height="15.36" transform="translate(172.87 291.32) scale(1.45)" xlink:href="#Konko" />
    <use width="13.44" height="15.36" transform="translate(402.47 170.96) scale(1.54)" xlink:href="#Konko" />
    <use width="13.44" height="15.36" transform="translate(70.08 318.75) scale(1.69)" xlink:href="#Konko" />
    <use width="13.44" height="15.36" transform="translate(481.39 335.02) scale(1.87)" xlink:href="#Konko" />
    <use width="13.44" height="15.36" transform="translate(99.01 211.02) scale(2.13)" xlink:href="#Konko" />
    <use width="13.44" height="15.36" transform="translate(341.62 130.47) scale(1.81)" xlink:href="#Konko" />
    <use width="13.44" height="15.36" transform="translate(187.23 62.06) scale(1.54)" xlink:href="#Konko" />
    <use width="13.44" height="15.36" transform="translate(267.69 15.58) scale(1.57)" xlink:href="#Konko" />
    <use width="13.44" height="15.36" transform="translate(26.38 150.63) scale(1.56)" xlink:href="#Konko" />
    <use width="13.44" height="15.36" transform="translate(319.32 342.62) scale(1.56)" xlink:href="#Konko" />
    <use width="13.44" height="15.36" transform="translate(654.43 322.42) scale(1.71)" xlink:href="#Konko" />
</svg>
