<svg id="background_FF190D" xmlns="http://www.w3.org/2000/svg" xmlns:xlink="http://www.w3.org/1999/xlink" viewBox="0 0 800 450">
    <defs>
        <style>
            .cls-FF190D {
                fill: #FF190D;
                fill-rule: evenodd;
            }
        </style>
        <symbol id="Konko" data-name="Konko" viewBox="0 0 13.44 15.36">
            <path class="cls-FF190D" d="M3.84,0H9.6V1H3.84Z" />
            <path class="cls-FF190D" d="M2.88,1h1v1h-1Z" />
            <path class="cls-FF190D" d="M9.6,1h1v1h-1Z" />
            <path class="cls-FF190D" d="M1.92,1.92h1v1h-1Z" />
            <path class="cls-FF190D" d="M10.56,1.92h1v1h-1Z" />
            <path class="cls-FF190D" d="M1,2.88h1V4.8H1Z" />
            <path class="cls-FF190D" d="M3.84,2.88h1v1h-1Z" />
            <path class="cls-FF190D" d="M8.64,2.88h1v1h-1Z" />
            <path class="cls-FF190D" d="M11.52,2.88h1V4.8h-1Z" />
            <path class="cls-FF190D" d="M2.88,3.84h1V6.72h-1Z" />
            <path class="cls-FF190D" d="M7.68,3.84h1v1h-1Z" />
            <path class="cls-FF190D" d="M9.6,3.84h1v1h-1Z" />
            <path class="cls-FF190D" d="M0,4.8H1V7.68h1v1H1v1h1v-1h1v1h1v-1h1v-1h1V9.6h-1v1.92h-1v-1h-1v1h-1v-1H1v1H0Z" />
            <path class="cls-FF190D" d="M6.72,4.8h1v1h-1Z" />
            <path class="cls-FF190D" d="M8.64,4.8h1V7.68h-1Z" />
            <path class="cls-FF190D" d="M10.56,4.8h1V6.72h1V4.8h1v6.72h-1v-1h-1v1h-1v-1h-1v1h-1V9.6h-1v-1H9.6v1h1v-1h1v1h1v-1h-1v-1h-1Z" />
            <path class="cls-FF190D" d="M5.76,5.76h1V7.68h-1Z" />
            <path class="cls-FF190D" d="M1.92,6.72h1v1h-1Z" />
            <path class="cls-FF190D" d="M3.84,6.72h1v1h-1Z" />
            <path class="cls-FF190D" d="M2.88,7.68h1v1h-1Z" />
            <path class="cls-FF190D" d="M9.6,7.68h1v1h-1Z" />
            <path class="cls-FF190D" d="M5.76,9.6H7.68v1.92H5.76Z" />
            <path class="cls-FF190D" d="M1,11.52h1v1h1v-1h1v1.92H9.6V11.52h1v1h1v-1h1v1.92h-1v1H9.6v1H7.68v-1H5.76v1H3.84v-1H1.92v-1H1Z" />
        </symbol>
    </defs>
    <title>FF190D</title>
    <use width="13.44" height="15.36" transform="translate(61.07 18.58) scale(1.6)" xlink:href="#Konko" />
    <use width="13.44" height="15.36" transform="translate(352.15 26.34) scale(1.3)" xlink:href="#Konko" />
    <use width="13.44" height="15.36" transform="translate(164.34 15.81) scale(1.41)" xlink:href="#Konko" />
    <use width="13.44" height="15.36" transform="translate(11.59 163.11) scale(1.52)" xlink:href="#Konko" />
    <use width="13.44" height="15.36" transform="translate(588.23 412.18) scale(2.11)" xlink:href="#Konko" />
    <use width="13.44" height="15.36" transform="translate(138.19 402.34) scale(1.22)" xlink:href="#Konko" />
    <use width="13.44" height="15.36" transform="translate(398.61 135.02) scale(2.08)" xlink:href="#Konko" />
    <use width="13.44" height="15.36" transform="translate(584.62 340.56) scale(1.24)" xlink:href="#Konko" />
    <use width="13.44" height="15.36" transform="translate(341.53 91.31) scale(1.24)" xlink:href="#Konko" />
    <use width="13.44" height="15.36" transform="translate(126.5 305.74) scale(1.83)" xlink:href="#Konko" />
    <use width="13.44" height="15.36" transform="translate(618.28 146.69) scale(1.94)" xlink:href="#Konko" />
    <use width="13.44" height="15.36" transform="translate(230.94 421.47) scale(1.51)" xlink:href="#Konko" />
    <use width="13.44" height="15.36" transform="translate(689.05 211.71) scale(1.59)" xlink:href="#Konko" />
    <use width="13.44" height="15.36" transform="translate(27.66 225.79) scale(1.54)" xlink:href="#Konko" />
    <use width="13.44" height="15.36" transform="translate(589.15 215.67) scale(1.78)" xlink:href="#Konko" />
    <use width="13.44" height="15.36" transform="translate(218.41 253.11) scale(1.4)" xlink:href="#Konko" />
    <use width="13.44" height="15.36" transform="translate(258.46 41.5) scale(1.21)" xlink:href="#Konko" />
    <use width="13.44" height="15.36" transform="translate(773.46 231.02) scale(1.35)" xlink:href="#Konko" />
    <use width="13.44" height="15.36" transform="translate(199.96 317.74) scale(1.23)" xlink:href="#Konko" />
    <use width="13.44" height="15.36" transform="translate(321.06 176.77) scale(1.71)" xlink:href="#Konko" />
    <use width="13.44" height="15.36" transform="translate(732.08 315.93) scale(1.5)" xlink:href="#Konko" />
    <use width="13.44" height="15.36" transform="translate(484.85 179.95) scale(1.69)" xlink:href="#Konko" />
    <use width="13.44" height="15.36" transform="translate(22.87 291.35) scale(1.58)" xlink:href="#Konko" />
    <use width="13.44" height="15.36" transform="translate(479.29 240.89) scale(1.5)" xlink:href="#Konko" />
    <use width="13.44" height="15.36" transform="translate(549.55 161.88) scale(1.34)" xlink:href="#Konko" />
    <use width="13.44" height="15.36" transform="translate(676.52 81.57) scale(1.61)" xlink:href="#Konko" />
    <use width="13.44" height="15.36" transform="translate(284.22 265.94) scale(1.11)" xlink:href="#Konko" />
    <use width="13.44" height="15.36" transform="translate(412.72 415.29) scale(1.8)" xlink:href="#Konko" />
    <use width="13.44" height="15.36" transform="translate(319.26 425.45) scale(1.56)" xlink:href="#Konko" />
    <use width="13.44" height="15.36" transform="translate(97.49 141.26) scale(1.97)" xlink:href="#Konko" />
    <use width="13.44" height="15.36" transform="translate(180.17 208.75) scale(1.46)" xlink:href="#Konko" />
    <use width="13.44" height="15.36" transform="translate(614.91 282.52) scale(1.8)" xlink:href="#Konko" />
    <use width="13.44" height="15.36" transform="translate(688.51 6.92) scale(1.63)" xlink:href="#Konko" />
    <use width="13.44" height="15.36" transform="translate(668.23 361.34) scale(1.18)" xlink:href="#Konko" />
    <use width="13.44" height="15.36" transform="translate(265.57 347.69) scale(1.79)" xlink:href="#Konko" />
    <use width="13.44" height="15.36" transform="translate(518.17 279.71) scale(1.57)" xlink:href="#Konko" />
    <use width="13.44" height="15.36" transform="translate(681.44 268.39) scale(1.77)" xlink:href="#Konko" />
    <use width="13.44" height="15.36" transform="translate(627.86 44.83) scale(1.58)" xlink:href="#Konko" />
    <use width="13.44" height="15.36" transform="translate(400.69 349.92) scale(1.54)" xlink:href="#Konko" />
    <use width="13.44" height="15.36" transform="translate(334.34 330.58) scale(1.72)" xlink:href="#Konko" />
    <use width="13.44" height="15.36" transform="translate(741.4 54.67) scale(1.12)" xlink:href="#Konko" />
    <use width="13.44" height="15.36" transform="translate(565.59 91.81) scale(1.33)" xlink:href="#Konko" />
    <use width="13.44" height="15.36" transform="translate(508.73 363.63) scale(1.45)" xlink:href="#Konko" />
    <use width="13.44" height="15.36" transform="translate(247.02 181.28) scale(1.54)" xlink:href="#Konko" />
    <use width="13.44" height="15.36" transform="translate(99.71 232.1) scale(1.69)" xlink:href="#Konko" />
    <use width="13.44" height="15.36" transform="translate(456.2 86.71) scale(1.87)" xlink:href="#Konko" />
    <use width="13.44" height="15.36" transform="translate(363.57 232.97) scale(2.13)" xlink:href="#Konko" />
    <use width="13.44" height="15.36" transform="translate(417.74 24.82) scale(1.81)" xlink:href="#Konko" />
    <use width="13.44" height="15.36" transform="translate(523.78 10.42) scale(1.52)" xlink:href="#Konko" />
    <use width="13.44" height="15.36" transform="translate(178.85 118.4) scale(1.51)" xlink:href="#Konko" />
    <use width="13.44" height="15.36" transform="translate(709.73 157.19) scale(1.54)" xlink:href="#Konko" />
    <use width="13.44" height="15.36" transform="translate(762.67 112.27) scale(1.57)" xlink:href="#Konko" />
    <use width="13.44" height="15.36" transform="translate(284.04 117.56) scale(1.56)" xlink:href="#Konko" />
    <use width="13.44" height="15.36" transform="translate(24.85 76.84) scale(1.54)" xlink:href="#Konko" />
    <use width="13.44" height="15.36" transform="translate(417.38 292.6) scale(1.56)" xlink:href="#Konko" />
    <use width="13.44" height="15.36" transform="translate(120.95 64.08) scale(1.78)" xlink:href="#Konko" />
    <use width="13.44" height="15.36" transform="translate(75.98 348.24) scale(1.71)" xlink:href="#Konko" />
</svg>
